<svg width="395" height="435" viewBox="0 0 395 435" fill="none" xmlns="http://www.w3.org/2000/svg">
<g clip-path="url(#clip0_1_40)">
<path d="M332.075 348.401C366.627 331.921 381.287 290.488 364.798 255.915C357.688 241.008 345.858 229.737 332.082 223.084C328.699 221.469 325.718 221.661 323.339 222.795C317.205 225.721 315.412 235.494 323.657 239.249C334.241 244.042 343.021 252.463 348.398 263.737C360.586 289.29 349.787 319.811 324.249 331.991C298.71 344.172 268.321 333.295 256.134 307.741C255.775 306.99 255.417 306.238 254.879 305.111C252.065 299.534 246.99 298.879 242.984 300.79C239.103 302.641 236.411 307.307 238.127 311.871C238.419 312.807 238.957 313.935 239.734 315.563C256.223 350.136 297.523 364.88 332.075 348.401Z" fill="white" fill-opacity="0.85"/>
<path d="M83.6412 129.082C42.5441 170.825 43.0095 226.571 89.3266 272.133L110.963 293.335C133.818 315.8 157.663 318.112 176.051 299.962C185.454 304.857 195.847 303.129 203.94 294.964C206.914 291.854 209.147 288.483 210.95 284.855C221.403 290.018 232.727 288.307 241.26 279.778C243.536 277.463 245.448 274.705 247.116 271.758L280.027 304.033C292.52 316.372 308.902 316.247 320.409 304.609C331.98 292.785 331.972 276.337 319.48 263.998L236.837 182.868C236.412 182.3 236.299 181.741 236.68 181.25C237.061 180.761 237.681 180.773 238.236 180.969L260.53 190.017C271.496 194.321 281.269 192.582 288.223 185.575C297.708 175.822 299.897 161.401 288.987 150.769C286.002 147.733 281.407 144.543 276.795 142.284L210.786 111.494C160.706 88.3286 117.975 94.1023 83.6412 129.082ZM96.7249 142.984C123.915 115.255 157.513 106.765 203.1 127.921L269.241 158.341C271.21 159.247 272.743 160.207 274.51 161.978C277.924 165.27 278.381 170.74 274.461 174.764C271.112 178.052 267.14 178.101 262.397 176.211L219.075 160.125C211.928 157.384 207.433 158.914 203.893 162.446C199.847 166.529 200.353 172.745 204.8 177.235L307.433 278.047C311.575 282.221 311.717 287.996 307.671 292.079C303.625 296.161 297.984 295.931 293.841 291.756L220.521 219.863C217.173 216.387 211.644 216.717 208.23 220.19C204.941 223.604 204.779 229.063 208.193 232.355L234.58 258.363C233.73 260.767 232.002 263.59 230.167 265.541C225.299 270.477 219.037 270.235 213.981 265.112L190.882 242.455C187.223 238.973 181.815 239.554 178.526 242.967C175.303 246.197 174.895 251.464 178.614 255.072L197.261 273.548C196.409 275.953 194.682 278.776 192.847 280.727C187.978 285.663 181.842 285.361 176.661 280.298L161.177 265.234C157.585 261.565 152.176 262.147 148.887 265.561C145.664 268.79 145.191 274.242 148.849 277.725L160.184 288.925C151.585 297.639 137.634 293.838 121.787 278.332L103.809 260.614C63.9491 221.504 62.3914 177.965 96.7249 142.984Z" fill="white" fill-opacity="0.85"/>
</g>
<defs>
<clipPath id="clip0_1_40">
<rect width="268.936" height="352.923" fill="white" transform="translate(394.67 318.547) rotate(154.501)"/>
</clipPath>
</defs>
</svg>
